<?xml version="1.0" encoding="utf-8"?>
<!-- Generator: Adobe Illustrator 25.0.1, SVG Export Plug-In . SVG Version: 6.00 Build 0)  -->
<svg version="1.1" id="Layer_1" xmlns="http://www.w3.org/2000/svg" xmlns:xlink="http://www.w3.org/1999/xlink" x="0px" y="0px"
	 viewBox="0 0 1000 1000" style="enable-background:new 0 0 1000 1000;" xml:space="preserve">
<style type="text/css">
	.st0{fill:#00AA6E;}
	.st1{fill:#272B36;}
	.st2{display:none;fill:#00AA6D;}
</style>
<g id="Layer_2">
</g>
<g>
	<g>
		<path class="st0" d="M636.82,102.32c-48.69,19.34-80.53,65.7-98.37,113.12c-17.46,46.29-12.27,98.82,8.58,143.07
			c29.35,63.22,85.95,108.83,115.6,171.82c23.41,50.28,34.09,112.14,8.13,163.55c-7.38,15.43-17.54,28.83-29.58,40.49
			c-17.23,16.86-38.16,30.03-59.98,40.57c-7.3,3.61-14.68,6.85-22.05,9.86c6.25-4.52,12.27-9.33,18.06-14.6
			c12.04-10.61,22.88-22.65,32.14-35.82c17.08-24.16,28.9-51.86,33.34-81.36c5.57-39.66-6.55-79.78-26.87-113.57
			c-20.92-35.9-47.64-68.04-68.57-104.01c-26.64-48.85-46.66-103.56-43.43-159.93c2.41-56.07,27.92-107.78,62.69-150.98
			c14.45-17.91,31.61-33.64,51.55-45.01c39.74-22.73,87-32.21,132.46-27.55l-5.64,5.72c-42.75,39.96-57.35,101.38-101.83,139.61
			c-25.66,21.3-58.85,30.78-91.29,35.15C559.15,178.41,598.29,137.31,636.82,102.32z"/>
		<path class="st0" d="M551.78,232.45c32.44-4.37,65.63-13.85,91.29-35.15c44.48-38.23,59.08-99.65,101.83-139.61l5.64-5.72
			c-45.46-4.67-92.72,4.82-132.46,27.55c-19.94,11.36-37.1,27.09-51.55,45.01c-34.77,43.2-60.29,94.91-62.69,150.98
			c-3.24,56.37,16.78,111.09,43.43,159.93c20.92,35.98,47.64,68.11,68.57,104.01c20.32,33.79,32.44,73.91,26.87,113.57
			c-4.44,29.5-16.26,57.2-33.34,81.36c-9.26,13.17-20.09,25.21-32.14,35.82c-5.8,5.27-3.31,8.35,3.99,4.74
			c21.83-10.54,42.75-23.71,59.98-40.57c12.04-11.67,22.2-25.06,29.58-40.49c25.97-51.4,15.28-113.27-8.13-163.55
			c-29.65-62.99-86.25-108.6-115.6-171.82c-20.85-44.25-26.04-96.79-8.58-143.07c17.84-47.42,49.67-93.78,98.37-113.12
			C598.29,137.31,559.15,178.41,551.78,232.45z M642.17,539.89c0.53,1.05,1.05,2.18,1.5,3.31c-2.56-5.12-5.34-10.16-8.35-15.13
			c-9.71-16.71-20.62-32.59-31.31-47.94C618.76,499.4,632.23,518.67,642.17,539.89z M652.03,119.03l48.24-43.8
			c0.15,0,0.3,0,0.38-0.08c-8.81,12.79-16.48,26.12-24.08,39.14c-14.45,24.99-28.15,48.62-47.94,65.63
			c-11.89,9.93-26.72,17.46-44.93,22.88C597.84,171.41,624.4,144.16,652.03,119.03z"/>
	</g>
	<path class="st0" d="M314.72,92.15c42.91-1.29,85.87,12.63,119.12,39.99c-6.36,3.83-12.68,7.75-19.18,11.43
		c-2.63-0.57-7.89-1.63-10.52-2.15c24.54,22.15,44.97,49.27,56.45,80.47c1.87,7.8,3.3,15.69,4.21,23.73
		c-29.04-6.94-57.22-20.52-77.79-42.53c-16.55-19.38-27.27-42.77-40.09-64.58C337.83,121.96,325.25,107.75,314.72,92.15z"/>
	<g>
		<path class="st0" d="M433.84,132.15c3.59,3.21,7.27,6.41,10.72,9.85c23.82,24.02,40.52,55.16,45.21,88.79
			c1,10.05,0.72,20.14,0.91,30.28c-5.69-15.69-9.66-32-16.27-47.36c-12.77-28.42-33.39-53.39-59.75-70.13
			C421.17,139.9,427.48,135.98,433.84,132.15z"/>
	</g>
	<g>
		<g>
			<path class="st1" d="M423.55,252.45c0.09,0.01,0.18,0.02,0.27,0.02c7.7,0.69,14.47,5.87,16.66,13.29
				c2.21,7.46,2.28,15.24-4.83,20.19c-5.34,5.57-12.03,6.14-18.62,4.62c-8.06-1.86-14-8.97-14.51-17.22
				c-0.03-0.54-0.06-1.08-0.07-1.62C402.19,260.38,412.23,251.5,423.55,252.45z"/>
		</g>
	</g>
	<g>
		<path class="st1" d="M465.13,291.65c11.53-9.81,30.04,3.59,29.18,17.32c1.15,14.45-16.89,26.17-29.47,18.27
			C450.54,321.02,452.31,298.92,465.13,291.65z"/>
	</g>
	<g>
		<g>
			<path class="st1" d="M458.23,364.73c0.05,0,0.1,0,0.15,0c4.21-0.11,7.75,3.19,7.94,7.39c0.03,0.66,0.05,1.32,0.07,1.98
				c0.11,3.88-2.55,7.4-6.39,7.98c-0.23,0.03-0.46,0.07-0.69,0.09c-4.56,0.58-8.65-3.02-8.64-7.62c0-0.74,0-1.48,0.01-2.22
				C450.71,368.2,454.09,364.84,458.23,364.73z"/>
			<path class="st1" d="M516.51,609.2c-6.02-7.97-1.7-15.59,4.87-20.72c4.34-3.4,10.35-3.66,15.29-1.21
				c0.76,0.38,1.51,0.76,2.26,1.15c4.67,2.49,7.6,7.39,7.67,12.69c0,0.06,0,0.12,0,0.18c0.07,6.63-4.19,12.6-10.57,14.45
				C528.45,617.93,520.61,617.6,516.51,609.2z"/>
		</g>
	</g>
	<g>
		<path class="st1" d="M471.08,447.34c-1.77-10.36,7.08-19.39,17.43-17.55c8.56,1.52,15.18,7.22,11.78,18.24
			c0.09,8.23-5.87,10.88-12.58,11.67c-7.84,0.93-15.19-4.31-16.58-12.08C471.11,447.53,471.1,447.44,471.08,447.34z"/>
	</g>
	<g>
		<g>
			<path class="st1" d="M530.57,505.78c18.08-9.66,38.56,13.63,30.76,31.43c-6.27,22.1-42.15,19.23-46.88-2.58
				C510.1,521.61,519.91,511.28,530.57,505.78z"/>
		</g>
	</g>
	<g>
		<path class="st1" d="M426.38,521.61c27.99-10.14,59.99,15.55,54.44,45.16c-1.29,29.76-38.61,47.22-62.72,30.47
			C389.59,580.45,395.09,531.85,426.38,521.61z"/>
	</g>
	<g>
		<path class="st1" d="M325.1,576.82c16.89,25.5,36.17,51.91,65.97,63.1c56.07,21.53,118.55,11.24,175.48,29.56
			c18.42,6.41,34.21,18.42,47.74,32.15c-20.04,43.15-60.18,76.69-106.83,86.83c-39.85,7.8-83,2.25-117.78-19.28
			c-38.75-24.11-67.21-65.64-72.52-111.27C314.44,630.68,316.3,602.84,325.1,576.82z"/>
	</g>
</g>
<g>
	<path class="st2" d="M408.44,877.11c0,0-10.33,11.16-14.49-1.28c1.06-4.96,9.87-24.35,28.92-27.72c2.02,0.44,2.62,1.95,2.62,1.95
		C426.15,850.45,412.71,857.13,408.44,877.11z"/>
</g>
</svg>
